<svg width="35" height="35" viewBox="0 0 35 35" fill="none" xmlns="http://www.w3.org/2000/svg">
<rect width="35" height="35" fill="#1E1E1E"/>
<g clip-path="url(#clip0_0_1)">
<rect width="1728" height="5189" transform="translate(-1468 -4980)" fill="white"/>
<rect width="1728" height="398" transform="translate(-1468 -189)" fill="#F5F5F5"/>
<circle opacity="0.1" cx="17.5" cy="17.5" r="17.5" fill="#1E1E1E"/>
<path d="M26.4634 20.65C26.4634 23.7574 24.611 25.6098 21.5037 25.6098H20.4878C20.0183 25.6098 19.6342 25.2256 19.6342 24.7561V19.8305C19.6342 19.6 19.822 19.4037 20.0524 19.4037L21.5549 19.3781C21.6744 19.3696 21.7769 19.2842 21.8025 19.1647L22.1012 17.5342C22.1269 17.3805 22.0073 17.2354 21.8451 17.2354L20.0268 17.261C19.7878 17.261 19.6 17.0732 19.5915 16.8427L19.5573 14.7513C19.5573 14.6147 19.6683 14.4952 19.8134 14.4952L21.8622 14.461C22.0073 14.461 22.1183 14.35 22.1183 14.2049L22.0842 12.1561C22.0842 12.011 21.9732 11.9 21.8281 11.9L19.5232 11.9342C18.1061 11.9598 16.9793 13.1208 17.0049 14.5378L17.0476 16.8854C17.0561 17.1244 16.8683 17.3122 16.6293 17.3208L15.6049 17.3378C15.4598 17.3378 15.3488 17.4488 15.3488 17.5939L15.3744 19.2159C15.3744 19.361 15.4854 19.472 15.6305 19.472L16.6549 19.4549C16.8939 19.4549 17.0817 19.6427 17.0902 19.8732L17.1671 24.7391C17.1756 25.2171 16.7915 25.6098 16.3134 25.6098H14.35C11.2427 25.6098 9.39026 23.7573 9.39026 20.6415V13.4964C9.39026 10.3891 11.2427 8.53662 14.35 8.53662H21.5037C24.611 8.53662 26.4634 10.3891 26.4634 13.4964V20.65Z" fill="#1E1E1E"/>
</g>
<defs>
<clipPath id="clip0_0_1">
<rect width="1728" height="5189" fill="white" transform="translate(-1468 -4980)"/>
</clipPath>
</defs>
</svg>
